<svg width="120" height="120" viewBox="0 0 120 120" fill="none" xmlns="http://www.w3.org/2000/svg">
<path d="M60.0027 0C26.9183 0 0 26.9171 0 60C0 78.7104 8.61625 95.4402 22.0836 106.451C22.1818 106.544 22.2909 106.615 22.4001 106.692C32.697 114.996 45.766 120 59.9973 120C74.2285 120 87.303 114.996 97.5999 106.686C97.7091 106.61 97.8127 106.544 97.911 106.457C111.378 95.4456 120 78.7159 120 60.0055C120 26.9225 93.0817 0.00545678 59.9973 0.00545678L60.0027 0ZM93.4473 102.992C84.1981 110.2 72.6133 114.538 60.0027 114.538C47.3921 114.538 35.8074 110.2 26.5581 102.992C26.4708 102.113 26.3835 101.235 26.3835 100.324C26.3835 86.1641 35.218 73.6686 48.4235 68.8505C51.9158 70.6457 55.8119 71.7588 59.9973 71.7588C64.1826 71.7588 68.0842 70.6457 71.5711 68.8505C84.7765 73.6686 93.611 86.1695 93.611 100.324C93.611 101.235 93.5237 102.113 93.4364 102.992H93.4473ZM39.9654 46.2605C39.9654 35.211 48.9528 26.2241 60.0027 26.2241C71.0527 26.2241 80.04 35.211 80.04 46.2605C80.04 57.3099 71.0527 66.2968 60.0027 66.2968C48.9528 66.2968 39.9654 57.3099 39.9654 46.2605ZM98.9041 98.163C98.1129 83.8669 89.6658 71.3059 76.9078 65.2001C82.1354 60.5293 85.5023 53.8068 85.5023 46.2605C85.5023 32.2044 74.0648 20.7676 60.0082 20.7676C45.9515 20.7676 34.5141 32.2044 34.5141 46.2605C34.5141 53.8068 37.8755 60.5293 43.1085 65.2001C30.3506 71.3059 21.9035 83.8669 21.1123 98.163C11.4483 88.3194 5.46769 74.8527 5.46769 60C5.45678 29.9236 29.925 5.45653 60.0027 5.45653C90.0805 5.45653 114.549 29.9236 114.549 60C114.549 74.8527 108.568 88.3194 98.9041 98.163Z" fill="white"/>
</svg>
