<svg width="171" height="211" viewBox="0 0 171 211" fill="none" xmlns="http://www.w3.org/2000/svg">
<path d="M117.987 72.9091C117.531 72.2498 116.699 71.9689 115.934 72.2132C115.175 72.4574 114.659 73.1717 114.671 73.9776C114.671 74.0997 114.702 84.7412 107.585 89.7166C107.913 82.9213 107.348 68.1587 96.703 64.8374C95.1302 64.3489 93.9704 63.3233 93.1628 61.7053C89.7501 54.9101 93.6729 39.952 95.4643 34.7692C95.7072 34.0732 95.5129 33.304 94.9664 32.8094C94.4259 32.3149 93.6486 32.1989 92.9807 32.5042C92.5617 32.6996 52.1195 51.9443 56.522 92.1953C53.0606 90.6385 47.468 87.2316 46.9761 81.3522C46.9033 80.5036 46.2596 79.8137 45.4216 79.6916C44.5775 79.5634 43.7699 80.0457 43.4663 80.8394C42.9623 82.1398 31.2727 112.977 44.9115 134.89C52.3381 146.82 65.8124 153.658 84.966 155.221C85.0145 155.227 85.0631 155.227 85.1117 155.227C85.221 155.227 85.3303 155.215 85.4396 155.196C86.8545 154.934 120.265 148.554 130.041 124.676C135.913 110.329 131.856 92.9104 117.987 72.9091ZM77.4599 118.613C76.045 108.546 83.9816 100.969 88.5907 97.4883C88.3843 102.702 90.1149 104.65 93.1875 107.599C96.0659 110.358 100.001 114.138 104.664 124.352C107.008 129.487 107.191 134.145 105.199 138.199C100.784 147.186 87.1458 150.99 84.9897 151.539C76.8708 150.556 71.0412 147.369 67.6534 142.058C62.7651 134.396 63.9492 123.956 65.0909 118.412C67.0462 119.969 69.9852 120.793 73.732 120.793C74.9768 120.793 75.8331 120.689 75.8755 120.689C76.3613 120.628 76.8046 120.378 77.1022 119.987C77.3997 119.596 77.5267 119.102 77.4599 118.613ZM126.671 123.266C122.651 133.083 113.961 139.763 105.526 144.158C106.673 142.851 107.681 141.416 108.459 139.829C110.967 134.737 110.803 129.017 107.973 122.826C103.024 111.97 98.6152 107.746 95.7004 104.948C92.5732 101.951 91.5165 100.937 92.6156 94.0689C92.7249 93.3789 92.4334 92.6829 91.8626 92.28C91.2918 91.8771 90.5449 91.8405 89.9315 92.1763C89.2089 92.5792 72.9466 101.841 73.657 117.129C71.1248 117.123 66.8438 116.641 66.0786 113.57C65.8843 112.782 65.192 112.214 64.3782 112.184C63.5767 112.141 62.8358 112.666 62.5809 113.435C62.338 114.174 56.7089 131.666 64.5665 144.016C65.5259 145.524 66.6555 146.88 67.9307 148.095C59.0042 144.963 52.3184 139.907 47.989 132.96C38.5038 117.739 42.5117 97.0239 45.1774 87.4382C49.1002 94.0991 57.7778 96.6328 58.2392 96.761C58.8343 96.9319 59.484 96.7793 59.9456 96.3641C60.4072 95.949 60.6318 95.3201 60.5286 94.7035C55.2941 62.4986 80.7796 43.8525 90.6961 37.9117C88.9351 44.3711 86.4271 56.4234 89.9006 63.3458C91.1636 65.8612 93.0886 67.5401 95.6148 68.3338C106.333 71.6795 103.709 92.4378 103.685 92.6457C103.6 93.2868 103.861 93.9278 104.365 94.3246C104.875 94.7276 105.549 94.8314 106.15 94.5933C113.953 91.5467 116.753 84.2143 117.755 79.1529C128.637 96.2971 131.642 111.114 126.669 123.264L126.671 123.266Z" fill="white"/>
</svg>
