<svg width="93" height="107" viewBox="0 0 93 107" fill="none" xmlns="http://www.w3.org/2000/svg">
<path d="M15.4227 0H77.5773C81.8108 0 85.6642 1.72455 88.4616 4.50948L88.4704 4.51828C91.2634 7.30322 93 11.1351 93 15.3543V91.6457C93 95.8605 91.2678 99.6968 88.4704 102.482L88.4616 102.491C85.6642 105.271 81.8152 107 77.5773 107H15.4227C11.1892 107 7.33579 105.275 4.53843 102.491L4.5296 102.482C1.73665 99.6968 0 95.8649 0 91.6457V15.3543C0 11.1395 1.73224 7.30322 4.5296 4.51828L4.53843 4.50948C7.33579 1.72894 11.1848 0 15.4227 0ZM36.604 82.9567C35.044 82.9567 33.7758 81.6941 33.7758 80.1411C33.7758 78.5881 35.044 77.3254 36.604 77.3254H77.7243C79.2843 77.3254 80.5526 78.5881 80.5526 80.1411C80.5526 81.6941 79.2843 82.9567 77.7243 82.9567H36.604ZM15.2768 70.9462H23.5671C24.5879 70.9462 25.4849 71.4873 25.9843 72.2968L30.4034 78.5264C31.1193 79.5383 31.0662 80.8626 30.368 81.8085L25.8781 88.1394C25.3301 88.9181 24.4552 89.3317 23.5713 89.3317L15.281 89.3405C13.7211 89.3405 12.4528 88.0778 12.4528 86.5248V73.7664C12.4528 72.2134 13.7211 70.9507 15.281 70.9507L15.2768 70.9462ZM22.1132 76.5775H18.1095V83.7047H22.1132L24.641 80.1411L22.1132 76.5775ZM36.604 29.6705C35.044 29.6705 33.7758 28.4079 33.7758 26.8548C33.7758 25.3018 35.044 24.0392 36.604 24.0392H77.7243C79.2843 24.0392 80.5526 25.3018 80.5526 26.8548C80.5526 28.4079 79.2843 29.6705 77.7243 29.6705H36.604ZM15.2768 17.66H23.5671C24.5879 17.66 25.4849 18.2011 25.9843 19.0106L30.4034 25.2402C31.1193 26.2521 31.0662 27.5763 30.368 28.5223L25.8781 34.8532C25.3301 35.6319 24.4552 36.0455 23.5713 36.0455L15.281 36.0543C13.7211 36.0543 12.4528 34.7916 12.4528 33.2386V20.4802C12.4528 18.9271 13.7211 17.6645 15.281 17.6645L15.2768 17.66ZM22.1132 23.2913H18.1095V30.4185H22.1132L24.641 26.8548L22.1132 23.2913ZM36.604 56.3136C35.044 56.3136 33.7758 55.051 33.7758 53.498C33.7758 51.9449 35.044 50.6823 36.604 50.6823H77.7243C79.2843 50.6823 80.5526 51.9449 80.5526 53.498C80.5526 55.051 79.2843 56.3136 77.7243 56.3136H36.604ZM15.2768 44.3031H23.5671C24.5879 44.3031 25.4849 44.8442 25.9843 45.6537L30.4034 51.8833C31.1193 52.8952 31.0662 54.2195 30.368 55.1654L25.8781 61.4963C25.3301 62.275 24.4552 62.6886 23.5713 62.6886L15.281 62.6974C13.7211 62.6974 12.4528 61.4347 12.4528 59.8817V47.1233C12.4528 45.5702 13.7211 44.3076 15.281 44.3076L15.2768 44.3031ZM22.1132 49.9344H18.1095V57.0616H22.1132L24.641 53.498L22.1132 49.9344ZM77.5773 5.63136H15.4227C12.7359 5.63136 10.2921 6.72244 8.52003 8.48219C6.75238 10.2464 5.65649 12.6794 5.65649 15.3543V91.6457C5.65649 94.3206 6.75243 96.7536 8.52003 98.5178C10.2921 100.278 12.7359 101.369 15.4227 101.369H77.5773C80.2641 101.369 82.7079 100.278 84.48 98.5178C86.2476 96.7536 87.3435 94.3206 87.3435 91.6457V15.3543C87.3435 12.6794 86.2476 10.2464 84.48 8.48219C82.7079 6.72239 80.2641 5.63136 77.5773 5.63136Z" fill="white"/>
</svg>
