<svg width="45" height="45" viewBox="0 0 45 45" fill="none" xmlns="http://www.w3.org/2000/svg">
<path d="M8.55733 13.9062C8.55733 13.9062 5.60279 11.1425 9.75014 11.6719L10.2039 10.3227L9.78795 9.01813L11.01 7.90609L11.2626 6.58609L12.1976 6.35922L12.8851 5.36922L13.8219 5.50844L13.5881 3.85156L14.4784 3.10563L15.5973 3.54734L15.8328 2.11047L16.7265 1.875L17.6409 2.59859L18.777 2.26859L19.6759 2.70172L20.592 2.82891L21.4514 1.875L22.273 2.59859L22.4448 3.31703L23.4056 3.54734L23.7975 4.26063L24.595 4.63531L25.4217 3.59375L26.3567 3.45453L27.1594 4.16094L27.785 3.19844L28.6667 3.48719L29.1359 4.34656L29.8664 4.32078L30.4955 5.16641L31.4511 4.71781L32.57 5.16641L32.759 6.35922L32.9447 6.53109L34.0773 6.35922L34.8405 6.84906C34.9839 7.13139 35.0935 7.42965 35.167 7.73766C35.1481 7.89922 35.057 9.08516 35.057 9.08516L34.684 9.60078L35.057 9.94453L35.4919 10.632L35.1876 11.4914L36.0281 11.3866L36.8445 11.7698C36.8445 11.7698 37.5715 12.9575 37.5715 13.0331C37.5715 13.1088 36.9494 14.085 36.9494 14.085L35.7944 14.8155L26.1453 12.4041L8.55733 13.9062Z" fill="#F9E48F"/>
<path d="M15.8328 3.26032C15.8988 3.09897 16.0045 2.95696 16.1402 2.84756C16.2759 2.73816 16.4371 2.66493 16.6087 2.63472C16.7804 2.60451 16.9569 2.6183 17.1218 2.6748C17.2867 2.7313 17.4345 2.82867 17.5516 2.95782L17.433 2.27032L16.4842 1.9386L15.8328 2.4336L15.4135 2.86844L15.6867 3.38407L15.8328 3.26032Z" fill="#FFEEA9"/>
<path d="M22.8659 3.05579L22.0375 3.38407L21.7625 3.85329L22.5548 4.13516L22.8676 4.80032L23.586 4.3861L22.8659 3.05579Z" fill="#D6C372"/>
<path d="M10.2039 10.3244C10.2039 10.3244 10.9017 8.97171 12.3282 10.4189L11.9673 10.8005L10.9464 10.1766L10.2039 10.3244Z" fill="#D6C372"/>
<path d="M11.9673 10.4687C12.0112 10.3453 12.0841 10.2342 12.18 10.1449C12.2759 10.0555 12.3918 9.99061 12.5181 9.95555C12.6443 9.92049 12.7772 9.91633 12.9054 9.94343C13.0336 9.97053 13.1534 10.0281 13.2546 10.1112L13.0604 10.4773L12.067 10.7025L11.9673 10.4687Z" fill="#D6C372"/>
<path d="M12.8044 10.5891C12.8044 10.5891 12.1323 7.43692 15.1264 8.75004L14.8703 9.05942L14.6881 8.95801L14.8875 8.88754C14.8875 8.88754 14.7242 7.43348 16.0373 7.95254C17.3505 8.47161 15.2828 8.34786 15.2828 8.34786L15.0766 9.49426L14.1845 8.88754L13.3252 9.4152L13.0484 10.3794L12.8044 10.5891Z" fill="#D6C372"/>
<path d="M13.1172 10.1611C13.1172 10.1611 14.1227 9.94797 14.0539 11.3917Z" fill="#D6C372"/>
<path d="M13.7394 11.1133C13.827 11.1133 16.2041 10.6612 14.9425 13.1758L14.2945 13.3098L14.7569 12.4144L14.4647 11.4708H13.7394V11.1133Z" fill="#D6C372"/>
<path d="M16.2831 7.84093C16.4329 7.82201 16.585 7.83819 16.7274 7.88819C16.8698 7.93819 16.9986 8.02064 17.1036 8.12901C17.2087 8.23739 17.2871 8.36872 17.3326 8.51262C17.3781 8.65652 17.3895 8.80904 17.366 8.95811C17.366 8.95811 18.2769 7.12077 19.8152 8.80686L19.4199 9.21421L18.5656 8.57827L17.641 9.0939L17.1442 9.17468L16.9724 8.99077L16.7008 8.23452L16.101 8.08843L16.2831 7.84093Z" fill="#D6C372"/>
<path d="M20.25 8.87206C20.3686 8.848 21.5168 8.35644 21.7625 10.4189L21.2074 10.5908L21.1249 9.49769L20.1555 9.21581V8.958L20.25 8.87206Z" fill="#D6C372"/>
<path d="M23.1203 10.7025C23.1203 10.7025 22.2128 8.9958 23.9797 9.08689C23.7485 9.28652 23.532 9.50249 23.3317 9.73314C23.3455 9.78299 23.2132 10.7025 23.2132 10.7025H23.1203Z" fill="#D6C372"/>
<path d="M23.7992 9.41512C23.7992 9.41512 23.3678 7.97996 24.8786 8.34777L23.7992 9.49418" fill="#D6C372"/>
<path d="M26.5096 7.7395C26.5096 7.7395 28.1012 7.052 28.0238 9.41528C28.0238 9.41528 29.5329 9.56309 28.7405 11.1048H28.0238L28.4621 9.8759L27.259 9.78481L27.4652 8.28778L26.4512 8.09184L26.5096 7.7395Z" fill="#D6C372"/>
<path d="M28.7406 10.8831C28.7406 10.8831 30.3699 11.4623 28.9709 12.9284L28.6752 13.0384L29.2424 11.5224L28.5549 11.1202L28.6735 10.8831H28.7406Z" fill="#D6C372"/>
<path d="M27.6062 9.4959C27.6062 9.4959 28.5567 7.88715 29.6687 9.21403L28.7767 9.16762L27.8709 9.59559L27.6062 9.4959Z" fill="#D6C372"/>
<path d="M29.239 9.14363C29.3655 8.95297 29.5418 8.80059 29.7488 8.70301C29.9557 8.60544 30.1855 8.5664 30.413 8.59013C30.6406 8.61386 30.8573 8.69946 31.0397 8.83763C31.2221 8.97581 31.3632 9.16128 31.4476 9.37394L31.0093 9.41519L30.3029 9.09379C30.087 9.26469 29.857 9.41705 29.6154 9.54926C29.4771 9.4529 29.3507 9.34038 29.239 9.2141V9.14363Z" fill="#D6C372"/>
<path d="M31.2706 10.235C31.2706 10.235 33.2729 9.85685 32.8553 12.0483H32.57L32.4307 10.9723L31.5748 10.4687L31.1486 10.5014L31.2706 10.235Z" fill="#D6C372"/>
<path d="M32.7229 11.8592C32.7229 11.8592 34.299 11.72 33.7645 13.1638Z" fill="#D6C372"/>
<path d="M34.0515 9.38946C33.9499 9.45149 33.8611 9.53262 33.7903 9.62837L33.9622 9.78477L33.847 9.84665C33.847 9.84665 33.8969 9.9343 33.9673 10.0512C33.9346 10.073 33.9007 10.0931 33.8659 10.1113C33.8556 10.1113 33.5342 9.38946 33.5342 9.38946L32.7144 8.65899L32.0269 8.84805L32.1042 8.55071C32.2847 8.45734 32.4836 8.40514 32.6867 8.39786C32.8898 8.39058 33.092 8.4284 33.2787 8.50861C33.4654 8.58882 33.632 8.70941 33.7665 8.86172C33.9011 9.01403 34.0002 9.19427 34.0567 9.38946C34.1101 9.50132 34.1571 9.61609 34.1976 9.73321C34.2269 9.81743 34.2544 9.89305 34.2767 9.96352C34.4692 10.0374 34.8576 10.1354 34.5981 9.63524C34.4262 9.29149 34.2165 9.30696 34.0567 9.39633L34.0515 9.38946Z" fill="#D6C372"/>
<path d="M8.38196 11.8559C8.38196 11.8559 8.08634 12.839 8.80134 13.0384C9.42524 13.2103 22.2488 11.9779 25.4302 11.6634C25.8962 11.6185 26.3664 11.6599 26.8173 11.7854C29.1221 12.4282 36.5368 14.434 36.9321 13.7499C37.3996 12.937 36.6124 14.5285 36.6124 14.5285H35.4918L26.5921 12.3268L8.32181 13.9064L7.50024 12.9249L7.91618 11.8524L8.38196 11.4606V11.8559Z" fill="#D6C372"/>
<path d="M33.7267 9.46852C33.7267 9.46852 33.8882 9.82945 33.8986 9.8243C33.9089 9.81914 34.3265 9.72461 34.3265 9.72461L34.1323 9.38086L33.8315 9.43414L33.7267 9.46852Z" fill="#D6C372"/>
<path d="M19.523 8.88755C19.523 8.88755 18.6121 6.97114 20.4993 6.85083C20.4993 6.85083 19.8272 7.62599 19.8118 7.65177C19.7963 7.67755 19.6107 8.95802 19.6107 8.95802L19.523 8.88755Z" fill="#D6C372"/>
<path d="M20.6453 6.6875C20.6453 6.6875 21.2142 6.61531 21.4032 6.94015C21.5923 7.265 21.3139 7.14125 21.3139 7.14125C21.3139 7.14125 20.8601 6.99344 20.7982 6.99344C20.7364 6.99344 20.6607 6.72359 20.6607 6.72359L20.6453 6.6875Z" fill="#D6C372"/>
<path d="M20.9598 7.06043L21.1008 6.79059C21.2319 6.53591 21.4312 6.32264 21.6764 6.17454C21.9216 6.02645 22.2031 5.94935 22.4895 5.95184H22.5652C22.8134 5.97165 23.0538 6.04772 23.2682 6.17429C23.4826 6.30085 23.6654 6.47459 23.8027 6.68231L24.0536 7.05356C23.8984 7.07108 23.7423 7.07969 23.5861 7.07934C23.5431 7.06387 22.7714 6.35747 22.7714 6.35747L21.9842 6.52934L21.4102 7.21684L20.6797 7.08278L20.9598 7.06043Z" fill="#D6C372"/>
<path d="M23.4073 6.73911C23.4073 6.73911 25.6022 6.09286 25.3237 8.34786H24.8786V7.38879L24.1739 6.9402L23.2853 7.08286L23.4073 6.73911Z" fill="#D6C372"/>
<path d="M24.9421 7.95251C24.9421 7.95251 25.7052 7.95251 25.7723 8.37533C25.8393 8.79814 25.4767 8.63486 25.4767 8.63486L24.6654 8.4183L24.9421 7.95251Z" fill="#D6C372"/>
<path d="M25.3152 8.37532C25.4205 8.19182 25.57 8.03753 25.7501 7.92647C25.9302 7.81541 26.1352 7.75111 26.3464 7.73939C27.0924 7.68782 26.1625 8.17939 26.1625 8.17939C26.1625 8.17939 25.6641 8.56782 25.6607 8.59189C25.5546 8.59012 25.4491 8.57628 25.3461 8.55064L25.3152 8.37532Z" fill="#D6C372"/>
<path d="M15.0765 5.91064C15.0765 5.91064 15.4392 3.4047 17.469 4.85533L17.2679 5.25579L16.5117 4.79689L15.4994 5.25236C15.4696 5.54105 15.4243 5.82793 15.3636 6.11173C15.2718 6.03923 15.176 5.97209 15.0765 5.91064Z" fill="#D6C372"/>
<path d="M17.0823 4.89489C17.0823 4.89489 17.5687 3.03521 18.8113 3.45974C18.7234 3.56472 18.6436 3.67618 18.5724 3.79318C18.5724 3.81724 17.8763 4.27271 17.8334 4.32255C17.7904 4.37239 17.4277 5.16818 17.4277 5.16818L17.084 5.05474L17.0823 4.89489Z" fill="#D6C372"/>
<path d="M18.5158 3.67629C18.5158 3.67629 18.4298 2.8702 19.0314 2.59863C19.0314 2.59863 19.3751 2.9252 19.339 2.96816C19.3029 3.01113 18.8956 3.7416 18.8784 3.7416L18.4711 3.77426L18.5158 3.67629Z" fill="#D6C372"/>
<path d="M17.9967 5.25574C17.9967 5.25574 18.856 4.71434 19.4748 6.11512L19.1792 6.42621L18.8474 6.32824L18.251 5.58403H17.897L17.9967 5.25574Z" fill="#D6C372"/>
<path d="M19.2238 6.13236C19.2238 6.13236 18.5277 3.49924 21.2073 4.22111L21.0474 4.56486H20.1743C20.1743 4.56486 19.4181 5.14408 19.4198 5.26096C19.4215 5.37783 19.5315 6.13752 19.5315 6.13752L19.2238 6.13236Z" fill="#D6C372"/>
<path d="M20.7552 4.4531C20.7552 4.4531 21.2709 3.05575 22.2145 3.73982C22.2145 3.73982 21.6284 4.10419 21.5888 4.142C21.5493 4.17982 21.1437 4.73669 21.1059 4.70403C21.0681 4.67138 20.7552 4.4531 20.7552 4.4531Z" fill="#D6C372"/>
<path d="M25.0796 5.42252C25.0796 5.42252 26.6935 5.19392 26.8173 6.41939L26.336 6.36095L25.4767 5.79548L24.8802 6.01377L25.0796 5.42252Z" fill="#D6C372"/>
<path d="M26.489 6.2785C26.489 6.2785 27.0923 5.66835 27.5598 6.2785Z" fill="#D6C372"/>
<path d="M27.2109 6.28883C27.2109 6.28883 27.9655 3.98914 29.5381 5.79555L29.2425 6.05508L28.4622 5.36758L27.5667 6.35758L27.2556 6.46586L27.2109 6.28883Z" fill="#D6C372"/>
<path d="M29.3594 5.79553C29.3594 5.79553 29.875 5.21631 30.3477 5.40709C30.8203 5.59787 30.0262 5.81099 30.0262 5.81099L29.4384 6.10662L29.3594 5.79553Z" fill="#D6C372"/>
<path d="M30.6811 5.40698C30.6811 5.40698 32.4806 5.97417 31.4511 7.45917L31.2242 7.50042L31.3204 6.53964L30.614 5.82808L30.2909 5.77479L30.6811 5.40698Z" fill="#D6C372"/>
<path d="M31.3635 7.23237C31.3635 7.23237 32.5666 7.07424 32.3792 8.75346L31.8808 8.88752L31.7691 7.89065L31.116 7.45408L31.3635 7.23237Z" fill="#D6C372"/>
<path d="M13.8218 5.36743C13.8218 5.36743 14.0349 3.52493 15.4134 3.74149L14.6073 3.1554C14.3329 3.27775 14.07 3.42443 13.8218 3.59368C13.7334 3.92411 13.6238 4.24848 13.4935 4.56477L13.8218 5.36743Z" fill="#FFEEA9"/>
<path d="M10.3724 10.094C10.3724 10.094 9.78284 8.76712 10.9464 8.37524L10.6955 8.03149C10.6955 8.03149 10.008 8.54712 9.96503 8.59696C9.92206 8.64681 9.71753 9.49415 9.71753 9.49415L10.3724 10.094Z" fill="#FFEEA9"/>
<path d="M11.266 8.03146C11.266 8.03146 11.4104 6.70287 12.4073 6.85068L12.1564 6.18896L11.3898 6.65303L10.8484 7.44193L11.266 8.03146Z" fill="#FFEEA9"/>
<path d="M12.4073 6.41932C12.4073 6.41932 13.3166 5.48604 13.9697 6.41932L14.1845 6.19417L13.7394 5.62526L13.1498 5.51526L12.3214 5.91745L12.4073 6.41932Z" fill="#FFEEA9"/>
<path d="M24.9422 4.90172C24.9422 4.90172 25.9734 3.29469 26.948 4.79688L27.1594 4.15234L26.3602 3.66938L25.4217 3.59375C25.4217 3.59375 24.9353 4.37234 24.8786 4.40844C24.8219 4.44453 24.9422 4.90172 24.9422 4.90172Z" fill="#FFEEA9"/>
<path d="M27.137 4.22114C27.137 4.22114 28.1167 2.96645 28.8351 4.50817C29.5535 6.04989 28.8695 4.55974 28.8695 4.55974C28.9159 4.37657 28.9733 4.19635 29.0413 4.02005C28.8071 3.72927 28.5532 3.45478 28.2817 3.19849L27.2504 3.26036L27.137 4.22114Z" fill="#FFEEA9"/>
<path d="M28.9709 4.55969C28.9709 4.55969 30.0864 4.58031 30.303 5.16813L30.3477 4.55969L29.71 4.28125L28.9709 4.55969Z" fill="#FFEEA9"/>
<path d="M31.116 5.16808C31.116 5.16808 32.515 5.67511 32.57 6.68745C32.625 7.69979 32.8846 6.30589 32.821 6.2887C32.6648 5.87438 32.5345 5.45075 32.4308 5.02026C31.9962 4.93773 31.5572 4.88034 31.116 4.84839V5.16808Z" fill="#FFEEA9"/>
<path d="M32.5699 6.9624C32.5699 6.9624 35.1154 6.59631 34.6324 9.34287C34.6324 9.36693 35.057 8.75162 35.0535 8.77568C34.5121 11.6013 35.246 8.11225 35.246 8.11225C35.246 8.11225 34.7906 7.03115 34.7906 6.92287C34.3632 6.69211 33.9141 6.50386 33.4499 6.36084L32.5699 6.9624Z" fill="#FFEEA9"/>
<path d="M33.78 10.4688C33.7938 10.4688 35.2461 9.81744 35.0003 11.3798L35.4919 11.0103L35.2547 9.95322L34.3318 9.72119L33.78 10.4688Z" fill="#FFEEA9"/>
<path d="M35.344 11.5998C35.8163 11.7101 36.2379 11.9757 36.5414 12.3539C36.8449 12.7322 37.0127 13.2014 37.0181 13.6863L37.5096 12.509L36.3529 11.3798L35.344 11.5998Z" fill="#FFEEA9"/>
<path d="M8.55733 13.9063C8.55733 13.9063 7.02764 13.1792 7.64811 12.1875C8.26858 11.1958 9.50951 11.2164 9.81717 11.775" stroke="#641926" stroke-width="0.3" stroke-miterlimit="10"/>
<path d="M9.81722 11.775C9.75371 11.6435 9.71968 11.4998 9.71752 11.3538C9.71536 11.2079 9.74511 11.0632 9.8047 10.9299C9.86429 10.7967 9.95228 10.6781 10.0625 10.5824C10.1727 10.4866 10.3025 10.4162 10.4428 10.3759C11.3538 9.96683 12.2458 10.7523 12.1135 11.28" stroke="#641926" stroke-width="0.3" stroke-miterlimit="10" stroke-linecap="round"/>
<path d="M24.8064 4.8553C24.766 4.6106 24.8127 4.35949 24.9383 4.14565C25.0639 3.9318 25.2605 3.76875 25.4939 3.68483C25.6753 3.61372 25.8713 3.58745 26.0651 3.60822C26.2589 3.629 26.4448 3.69622 26.6071 3.80418C26.7694 3.91214 26.9032 4.05765 26.9973 4.22837C27.0913 4.39909 27.1428 4.58997 27.1473 4.78483" stroke="#641926" stroke-width="0.3" stroke-miterlimit="10" stroke-linecap="round"/>
<path d="M13.1636 10.4156C13.0978 10.2874 13.0598 10.1468 13.0523 10.0029C13.0448 9.85901 13.0678 9.71516 13.12 9.58084C13.1721 9.44653 13.2521 9.32479 13.3548 9.22366C13.4574 9.12253 13.5803 9.04432 13.7154 8.99416C14.5747 8.60573 15.3086 9.22448 15.1832 9.72635" stroke="#641926" stroke-width="0.3" stroke-miterlimit="10" stroke-linecap="round"/>
<path d="M10.5803 10.3243C10.4384 10.2984 10.3037 10.2428 10.1849 10.161C10.0661 10.0793 9.966 9.97327 9.89114 9.85002C9.81629 9.72678 9.76839 9.58907 9.7506 9.44598C9.73281 9.30288 9.74553 9.15764 9.78794 9.01982C10.0079 8.09857 10.9429 7.89747 11.2626 8.3031" stroke="#641926" stroke-width="0.3" stroke-miterlimit="10" stroke-linecap="round"/>
<path d="M20.3015 9.09376C20.1686 9.03748 20.0493 8.95354 19.9514 8.84753C19.8535 8.74152 19.7793 8.61587 19.7338 8.47894C19.6882 8.34201 19.6724 8.19696 19.6873 8.05343C19.7022 7.90991 19.7476 7.77121 19.8203 7.64657C19.8887 7.47616 20.0073 7.33054 20.1603 7.22894C20.3132 7.12733 20.4934 7.07453 20.6771 7.07751C20.8607 7.08049 21.0391 7.13911 21.1887 7.24562C21.3383 7.35214 21.4521 7.50153 21.515 7.67407" stroke="#641926" stroke-width="0.3" stroke-miterlimit="10" stroke-linecap="round"/>
<path d="M18.2063 5.57717C18.0871 5.53361 17.9789 5.46416 17.8897 5.37382C17.8004 5.28347 17.7323 5.17447 17.6903 5.05466C17.6482 4.93484 17.6332 4.80719 17.6463 4.68089C17.6595 4.55459 17.7005 4.43277 17.7663 4.3242C17.8335 4.17356 17.9435 4.04602 18.0827 3.95746C18.2218 3.86891 18.384 3.82325 18.5489 3.82618C18.7138 3.82911 18.8742 3.8805 19.0101 3.97395C19.146 4.0674 19.2514 4.19877 19.3132 4.3517" stroke="#641926" stroke-width="0.3" stroke-miterlimit="10" stroke-linecap="round"/>
<path d="M12.1169 11.2799C12.0722 11.053 12.1169 10.5924 12.8216 10.436C13.5572 10.2778 13.8064 11.2575 13.5881 11.5995" stroke="#641926" stroke-width="0.3" stroke-miterlimit="10" stroke-linecap="round"/>
<path d="M23.4073 7.40414C23.4813 7.18414 23.6892 6.92976 24.3733 7.13773C24.5046 7.17104 24.6243 7.23937 24.7198 7.33543C24.8152 7.4315 24.8828 7.55168 24.9153 7.68316C24.9477 7.81464 24.9439 7.95246 24.9041 8.08192C24.8644 8.21138 24.7902 8.32761 24.6895 8.4182" stroke="#641926" stroke-width="0.3" stroke-miterlimit="10" stroke-linecap="round"/>
<path d="M30.2926 5.78176C30.3843 5.66481 30.4468 5.52769 30.4749 5.38176C30.5031 5.23584 30.496 5.08531 30.4543 4.94266C30.4127 4.80001 30.3376 4.66934 30.2353 4.5615C30.1331 4.45365 30.0066 4.37174 29.8664 4.32254C29.7073 4.256 29.5322 4.23812 29.363 4.27116C29.1938 4.3042 29.0382 4.38668 28.9159 4.50817C28.8395 4.58306 28.7808 4.67408 28.744 4.77457" stroke="#641926" stroke-width="0.3" stroke-miterlimit="10" stroke-linecap="round"/>
<path d="M25.6623 8.99924C25.6623 8.99924 25.4784 8.23439 24.7875 8.40627C24.0965 8.57814 23.9401 9.2983 24.2392 9.54924" stroke="#641926" stroke-width="0.3" stroke-miterlimit="10" stroke-linecap="round"/>
<path d="M24.2736 9.55956C24.2155 9.50658 24.1468 9.46661 24.072 9.44235C23.9973 9.41808 23.9182 9.41008 23.84 9.41886C23.7619 9.42765 23.6866 9.45303 23.6191 9.4933C23.5516 9.53358 23.4934 9.58781 23.4486 9.65238C23.3901 9.73526 23.3522 9.83095 23.3382 9.93145C23.3242 10.0319 23.3345 10.1343 23.3681 10.2301C23.4018 10.3258 23.4578 10.4121 23.5316 10.4817C23.6054 10.5513 23.6948 10.6023 23.7923 10.6303" stroke="#641926" stroke-width="0.3" stroke-miterlimit="10" stroke-linecap="round"/>
<path d="M23.5414 12.6086C23.3627 12.5729 23.196 12.4921 23.0573 12.3738C22.9186 12.2555 22.8124 12.1038 22.7488 11.9329C22.6853 11.7621 22.6665 11.5778 22.6942 11.3977C22.7219 11.2175 22.7952 11.0474 22.9072 10.9036C23.0188 10.7606 23.1744 10.6583 23.3499 10.6126C23.5255 10.567 23.7112 10.5804 23.8783 10.6509" stroke="#641926" stroke-width="0.3" stroke-miterlimit="10" stroke-linecap="round"/>
<path d="M11.1921 8.23433C11.0784 8.0858 11.0031 7.91147 10.9729 7.72683C10.9427 7.54219 10.9586 7.35295 11.0191 7.17593C11.0797 6.9989 11.183 6.83957 11.3199 6.71208C11.4568 6.58458 11.6231 6.49288 11.804 6.44511C11.8733 6.41844 11.9472 6.40624 12.0213 6.40926C12.0955 6.41228 12.1682 6.43046 12.235 6.46267C12.3019 6.49488 12.3614 6.54044 12.4099 6.59654C12.4585 6.65264 12.495 6.71809 12.5173 6.78886" stroke="#641926" stroke-width="0.3" stroke-miterlimit="10" stroke-linecap="round"/>
<path d="M15.0852 9.21402C15.0628 8.97725 15.1292 8.74062 15.2715 8.55006C15.4138 8.3595 15.6218 8.2286 15.8552 8.18277C16.5908 8.02293 17.1683 8.6984 16.95 9.04215" stroke="#641926" stroke-width="0.3" stroke-miterlimit="10" stroke-linecap="round"/>
<path d="M29.4763 9.87573C29.5051 9.81855 29.5169 9.75426 29.5102 9.69056C29.5035 9.62685 29.4786 9.56643 29.4385 9.51651C29.3466 9.38379 29.2172 9.28149 29.0669 9.2227C28.9165 9.16392 28.7521 9.15132 28.5946 9.18651C28.4668 9.21082 28.3474 9.26729 28.2475 9.35059C28.1477 9.4339 28.0707 9.54128 28.0239 9.6626" stroke="#641926" stroke-width="0.3" stroke-miterlimit="10" stroke-linecap="round"/>
<path d="M27.9311 7.23229C28.0445 7.06042 27.8537 6.71666 27.5719 6.5637C27.4003 6.47355 27.2023 6.44735 27.0133 6.48979C26.852 6.52089 26.7046 6.60208 26.5922 6.72182" stroke="#641926" stroke-width="0.3" stroke-miterlimit="10" stroke-linecap="round"/>
<path d="M30.8856 7.54685C31.0162 7.4145 31.2981 7.37497 31.745 7.74794C31.8914 7.91396 31.9851 8.1198 32.0142 8.33926C32.0433 8.55871 32.0064 8.78185 31.9083 8.98028" stroke="#641926" stroke-width="0.3" stroke-miterlimit="10" stroke-linecap="round"/>
<path d="M27.2385 9.74343C27.2687 9.72774 27.2975 9.70933 27.3244 9.68843C27.4683 9.53909 27.561 9.34785 27.5891 9.14236C27.6172 8.93687 27.5793 8.72777 27.4808 8.54526C27.3822 8.36275 27.2282 8.21629 27.041 8.12704C26.8538 8.03779 26.6431 8.01037 26.4392 8.04875C26.3862 8.0575 26.334 8.07013 26.2828 8.08656C26.1591 8.12622 26.0462 8.19385 25.9528 8.28421C25.8593 8.37857 25.7854 8.49045 25.7353 8.61344C25.6851 8.73643 25.6598 8.86812 25.6606 9.00093C25.6585 9.03069 25.6585 9.06055 25.6606 9.09031" stroke="#641926" stroke-width="0.3" stroke-miterlimit="10" stroke-linecap="round"/>
<path d="M29.239 6.68753C29.2844 6.43295 29.4183 6.2026 29.6171 6.03717C29.8158 5.87174 30.0667 5.78188 30.3253 5.78347C31.5112 5.86081 31.6521 7.34237 30.8821 7.55034" stroke="#641926" stroke-width="0.3" stroke-miterlimit="10" stroke-linecap="round"/>
<path d="M27.0149 4.2297C26.9928 4.04163 27.0308 3.85138 27.1234 3.68621C27.216 3.52104 27.3586 3.38941 27.5305 3.31017C27.7059 3.2241 27.9027 3.19182 28.0964 3.21738C28.29 3.24294 28.4717 3.3252 28.6187 3.45381C28.7657 3.58242 28.8714 3.75164 28.9224 3.94016C28.9734 4.12869 28.9676 4.3281 28.9055 4.51329" stroke="#641926" stroke-width="0.3" stroke-miterlimit="10" stroke-linecap="round"/>
<path d="M15.7108 3.74159C15.5457 3.51898 15.4731 3.24109 15.5083 2.96617C15.5436 2.69124 15.6839 2.44064 15.8999 2.2669C16.9707 1.41955 18.1446 2.74815 17.6496 3.51987" stroke="#641926" stroke-width="0.3" stroke-miterlimit="10" stroke-linecap="round"/>
<path d="M20.6453 2.96808C20.6357 2.79053 20.6856 2.61486 20.7871 2.46886C20.8886 2.32287 21.0359 2.21488 21.2056 2.16199C22.2094 1.83886 22.7078 3.12105 22.1424 3.5473" stroke="#641926" stroke-width="0.3" stroke-miterlimit="10" stroke-linecap="round"/>
<path d="M33.5703 10.6269C33.5943 10.3866 33.7105 10.165 33.8945 10.0086C34.0784 9.85221 34.3159 9.7732 34.5569 9.78818C34.7727 9.79464 34.9801 9.87335 35.1458 10.0117C35.3116 10.15 35.4261 10.34 35.4711 10.5511C35.516 10.7623 35.4888 10.9824 35.3938 11.1763C35.2988 11.3702 35.1415 11.5265 34.947 11.6204" stroke="#641926" stroke-width="0.3" stroke-miterlimit="10" stroke-linecap="round"/>
<path d="M29.4385 9.51651C29.4986 9.37838 29.5936 9.25823 29.7141 9.16784C29.8346 9.07746 29.9765 9.01992 30.126 9.00088C30.3374 8.95909 30.5568 8.98921 30.7491 9.08645C30.9415 9.1837 31.0958 9.34248 31.1874 9.53753C31.2791 9.73258 31.303 9.9527 31.2551 10.1629C31.2073 10.373 31.0906 10.5611 30.9235 10.6973" stroke="#641926" stroke-width="0.3" stroke-miterlimit="10" stroke-linecap="round"/>
<path d="M19.8649 6.28863C19.6608 6.16002 19.5141 5.9576 19.4555 5.72355C19.3969 5.48949 19.4309 5.24185 19.5504 5.03222C20.1502 4.00097 21.441 4.5166 21.2915 5.29176" stroke="#641926" stroke-width="0.3" stroke-miterlimit="10" stroke-linecap="round"/>
<path d="M24.5984 6.39191C24.6891 6.17044 24.8591 5.99078 25.0753 5.8881C25.2915 5.78542 25.5382 5.76711 25.7671 5.83675C25.9769 5.9218 26.1631 6.05618 26.3098 6.22849C26.4566 6.4008 26.5596 6.60596 26.6102 6.82657C26.6608 7.04719 26.6575 7.27675 26.6005 7.4958C26.5435 7.71485 26.4345 7.91692 26.2828 8.08488" stroke="#641926" stroke-width="0.3" stroke-miterlimit="10" stroke-linecap="round"/>
<path d="M21.4927 7.60699C21.4184 7.37733 21.436 7.12784 21.5417 6.91088C21.6475 6.69391 21.8332 6.52636 22.0599 6.44339C23.1805 6.04464 23.8233 7.19792 23.1977 7.69464" stroke="#641926" stroke-width="0.3" stroke-miterlimit="10" stroke-linecap="round"/>
<path d="M15.6351 6.24914C15.5091 6.04333 15.4675 5.79675 15.519 5.56098C15.5706 5.32521 15.7114 5.11852 15.9118 4.98414C16.9053 4.33101 17.8214 5.57367 17.3332 6.20445" stroke="#641926" stroke-width="0.3" stroke-miterlimit="10" stroke-linecap="round"/>
<path d="M12.1168 6.39194C12.1257 6.25624 12.1688 6.12499 12.2421 6.01047C12.3155 5.89595 12.4166 5.8019 12.5362 5.7371C13.5365 5.09428 14.5489 5.96397 14.0539 6.59647" stroke="#641926" stroke-width="0.3" stroke-miterlimit="10" stroke-linecap="round"/>
<path d="M21.0337 10.4773C21.307 10.4257 21.9395 10.6114 22.1165 11.4484C22.1764 11.707 22.1474 11.9783 22.0342 12.2184C21.921 12.4585 21.7302 12.6535 21.4926 12.7718" stroke="#641926" stroke-width="0.3" stroke-miterlimit="10" stroke-linecap="round"/>
<path d="M13.5881 11.5997C13.8614 11.5482 14.5558 11.1563 14.7328 11.995C14.7852 12.251 14.76 12.5168 14.6605 12.7583C14.561 12.9999 14.3917 13.2063 14.1742 13.3511" stroke="#641926" stroke-width="0.3" stroke-miterlimit="10" stroke-linecap="round"/>
<path d="M30.9165 10.7025C31.1299 10.5768 31.379 10.5255 31.6248 10.5566C31.8705 10.5877 32.0989 10.6994 32.2743 10.8743C32.7899 11.39 32.551 12.2064 32.1592 12.2098" stroke="#641926" stroke-width="0.3" stroke-miterlimit="10" stroke-linecap="round"/>
<path d="M14.054 6.58776C14.2482 6.37292 15.1041 5.77308 15.7847 6.35745C16.4997 6.97448 16.1766 8.19136 15.661 8.23433" stroke="#641926" stroke-width="0.3" stroke-miterlimit="10" stroke-linecap="round"/>
<path d="M25.0281 5.91067C25.0812 5.73013 25.0887 5.53927 25.05 5.35513C25.0113 5.17098 24.9276 4.99928 24.8064 4.85536C24.7452 4.7742 24.6749 4.70038 24.5967 4.63536C24.4597 4.51672 24.2938 4.4363 24.1158 4.4022C23.9377 4.3681 23.7539 4.38153 23.5827 4.44114C23.3132 4.52199 23.0677 4.66777 22.8677 4.86567" stroke="#641926" stroke-width="0.3" stroke-miterlimit="10" stroke-linecap="round"/>
<path d="M30.4955 5.32975C30.7188 5.10751 31.0087 4.9645 31.3209 4.9226C31.6332 4.8807 31.9506 4.94221 32.2245 5.09771C32.8863 5.50334 32.912 6.79928 32.4308 6.96256" stroke="#641926" stroke-width="0.3" stroke-miterlimit="10" stroke-linecap="round"/>
<path d="M15.6868 3.72604C15.489 3.51116 15.2221 3.37235 14.9326 3.33373C14.6432 3.29511 14.3493 3.35912 14.1021 3.51463C12.7941 4.50291 14.188 6.37635 15.1333 6.1065" stroke="#641926" stroke-width="0.3" stroke-miterlimit="10" stroke-linecap="round"/>
<path d="M34.947 11.6204C35.2614 11.4244 35.6343 11.3447 36.0013 11.3949C36.3683 11.4451 36.7061 11.6222 36.9562 11.8954C37.1712 12.1453 37.3086 12.4524 37.3518 12.7791C37.395 13.1059 37.3421 13.4381 37.1996 13.7353C37.057 14.0325 36.8309 14.2817 36.549 14.4524C36.2671 14.6232 35.9416 14.7082 35.6122 14.6969" stroke="#641926" stroke-width="0.3" stroke-miterlimit="10" stroke-linecap="round"/>
<path d="M33.7748 10.1251C33.7688 9.7816 33.6312 9.45352 33.3904 9.20853C33.1496 8.96355 32.8239 8.82036 32.4806 8.80852C32.2757 8.80654 32.075 8.86645 31.9048 8.98039C31.7221 9.12558 31.5723 9.30791 31.4653 9.51532C31.3584 9.72273 31.2967 9.95048 31.2843 10.1835" stroke="#641926" stroke-width="0.3" stroke-miterlimit="10" stroke-linecap="round"/>
<path d="M32.4308 6.96252C32.6468 6.71758 32.9357 6.54847 33.255 6.48009C33.5743 6.41171 33.9072 6.44767 34.2045 6.58268C34.4724 6.74421 34.6984 6.96661 34.8643 7.23183C35.0301 7.49706 35.1311 7.79764 35.1591 8.10919C35.1871 8.42075 35.1412 8.73451 35.0252 9.02503C34.9092 9.31554 34.7264 9.57463 34.4916 9.78127" stroke="#641926" stroke-width="0.3" stroke-miterlimit="10" stroke-linecap="round"/>
<path d="M28.4776 12.9283C28.799 12.9008 29.2459 12.2408 29.1101 11.6651C28.9623 11.0257 28.17 11.0515 27.9689 11.0841" stroke="#641926" stroke-width="0.3" stroke-miterlimit="10" stroke-linecap="round"/>
<path d="M32.3208 12.1668C32.5408 12.1256 33.407 12.0757 33.5514 12.7512C33.5915 13.0198 33.5294 13.2937 33.3772 13.5187C33.2251 13.7437 32.9941 13.9035 32.7299 13.9664" stroke="#641926" stroke-width="0.3" stroke-miterlimit="10"/>
<path d="M16.1937 10.3793C16.1393 10.2719 16.1081 10.1542 16.1021 10.034C16.0961 9.91372 16.1155 9.79354 16.1589 9.68125C16.2024 9.56895 16.2689 9.46703 16.3542 9.38209C16.4396 9.29716 16.5418 9.2311 16.6543 9.18821C17.3796 8.86337 17.9898 9.38243 17.8849 9.80181" stroke="#641926" stroke-width="0.3" stroke-miterlimit="10" stroke-linecap="round"/>
<path d="M19.0521 3.95293C18.9974 3.84531 18.9661 3.7274 18.9601 3.60687C18.954 3.48633 18.9735 3.36588 19.0171 3.25335C19.0607 3.14083 19.1275 3.03875 19.2132 2.95376C19.2989 2.86878 19.4015 2.8028 19.5144 2.76011C20.238 2.43527 20.8499 2.95433 20.7433 3.37371" stroke="#641926" stroke-width="0.3" stroke-miterlimit="10" stroke-linecap="round"/>
<path d="M17.7234 2.8426C17.79 2.70878 17.8903 2.59463 18.0145 2.51144C18.1387 2.42825 18.2824 2.37889 18.4315 2.36823C18.6213 2.33074 18.818 2.35291 18.9946 2.43169C19.1713 2.51047 19.3192 2.64201 19.4181 2.80823" stroke="#641926" stroke-width="0.3" stroke-miterlimit="10" stroke-linecap="round"/>
<path d="M19.2909 9.49432C19.3304 9.1901 19.492 8.94432 20.3221 9.11448C21.1935 9.28635 21.4101 10.1646 21.0389 10.4774" stroke="#641926" stroke-width="0.3" stroke-miterlimit="10" stroke-linecap="round"/>
<path d="M18.8475 6.5397C18.981 6.41611 19.1448 6.33002 19.3223 6.29018C19.4998 6.25033 19.6847 6.25815 19.8582 6.31283C20.0536 6.34021 20.2349 6.42995 20.3752 6.56869C20.5155 6.70743 20.6072 6.88775 20.6368 7.08283" stroke="#641926" stroke-width="0.3" stroke-miterlimit="10" stroke-linecap="round"/>
<path d="M22.144 3.54562C22.207 3.46406 22.2866 3.39679 22.3775 3.34825C22.4684 3.2997 22.5686 3.27099 22.6714 3.264C22.7742 3.25702 22.8774 3.27192 22.974 3.30773C23.0706 3.34353 23.1586 3.39943 23.232 3.47172C23.3602 3.59584 23.4579 3.74793 23.5176 3.9161C23.5772 4.08426 23.5971 4.26395 23.5758 4.44109" stroke="#641926" stroke-width="0.3" stroke-miterlimit="10" stroke-linecap="round"/>
<path d="M17.8025 9.37387C17.7821 9.17397 17.837 8.97362 17.9565 8.81211C18.0761 8.65059 18.2516 8.53955 18.4488 8.50075C19.0641 8.3684 19.48 9.20715 19.291 9.49418" stroke="#641926" stroke-width="0.3" stroke-miterlimit="10" stroke-linecap="round"/>
<path d="M27.5719 6.56375C27.5479 6.32487 27.6152 6.08576 27.7603 5.89446C27.9053 5.70316 28.1174 5.57385 28.3539 5.5325C29.191 5.395 29.5691 6.31969 29.2425 6.68063" stroke="#641926" stroke-width="0.3" stroke-miterlimit="10" stroke-linecap="round"/>
<path d="M21.2142 4.83818C21.19 4.63764 21.2435 4.43543 21.3636 4.27307C21.4838 4.1107 21.6616 4.00049 21.8604 3.96506C22.7439 3.81209 23.1151 4.86397 22.694 5.16818" stroke="#641926" stroke-width="0.3" stroke-miterlimit="10" stroke-linecap="round"/>
<path d="M27.2556 9.7331C27.3488 9.66584 27.4558 9.62037 27.5689 9.60007C27.682 9.57977 27.7982 9.58515 27.909 9.61582C28.0197 9.64649 28.1221 9.70165 28.2087 9.77724C28.2952 9.85283 28.3636 9.9469 28.4089 10.0525C28.4542 10.1581 28.4752 10.2725 28.4702 10.3873C28.4653 10.5021 28.4347 10.6144 28.3805 10.7157C28.3264 10.8171 28.2502 10.9049 28.1575 10.9729C28.0648 11.0408 27.9581 11.087 27.8451 11.1081" stroke="#641926" stroke-width="0.3" stroke-miterlimit="10" stroke-linecap="round"/>
<path d="M17.4277 6.05165C17.4535 5.85915 17.6512 5.51025 18.2459 5.57728C18.4518 5.62757 18.63 5.75636 18.7424 5.93617C18.8548 6.11598 18.8925 6.33258 18.8474 6.53978" stroke="#641926" stroke-width="0.3" stroke-miterlimit="10" stroke-linecap="round"/>
<path d="M8.1637 14.2468L11.7318 42.2538L15.4993 42.6646L25.0865 43.1235L27.864 41.6557L32.9446 38.586L33.5703 34.4765L36.0865 15.6029L35.6121 14.6971L26.1401 12.4043L8.55729 13.9099L8.1637 14.2468Z" fill="#F2F2F2"/>
<path d="M11.1801 13.37L13.9163 42.5544L16.9155 42.7968L14.7052 13.1689L11.1801 13.37Z" fill="#D14242"/>
<path d="M19.3458 13.1982L19.2186 42.9412L22.3124 42.9927L23.3024 12.7754L19.3458 13.1982Z" fill="#D14242"/>
<path d="M29.6171 13.2067L27.5667 41.8119L25.3065 43.0081L26.1401 12.4041L29.6171 13.2067Z" fill="#D14242"/>
<path d="M36.1741 15.0836L32.9446 38.5858L30.4954 40.1017L33.7799 14.2534" fill="#D14242"/>
<path opacity="0.21" d="M26.1453 12.4041C26.1453 12.4041 41.3666 27.8591 19.8203 42.8706L25.3203 43.0081L33.3486 38.4311L35.992 14.6969L26.1453 12.4041Z" fill="#2B2E4A"/>
<path d="M9.71742 13.9664L9.09695 14.6969L12.8851 42.3791H11.9673L11.1801 37.381L8.18945 14.4408L8.55727 13.9097L9.71742 13.6863V13.9664Z" fill="white"/>
<path d="M8.98536 13.7601L26.1454 12.404C26.2399 12.3968 26.335 12.4043 26.4272 12.4264L35.4197 14.6212C35.6329 14.6735 35.8192 14.8025 35.9432 14.9836C36.0672 15.1646 36.1201 15.385 36.0918 15.6026L33.1304 38.1406C33.113 38.2747 33.0653 38.4031 32.9908 38.516C32.9164 38.6289 32.8171 38.7233 32.7007 38.792L25.5833 42.9943C25.4331 43.0824 25.2605 43.1248 25.0866 43.1164L12.5174 42.5148C12.3084 42.5049 12.1095 42.4218 11.9556 42.2801C11.8016 42.1384 11.7024 41.9471 11.6752 41.7397L8.17239 14.7656C8.15637 14.6456 8.16497 14.5237 8.19766 14.4072C8.23035 14.2907 8.28646 14.182 8.36254 14.0879C8.43863 13.9938 8.5331 13.9162 8.64018 13.8599C8.74726 13.8035 8.86472 13.7696 8.98536 13.7601Z" stroke="#641926" stroke-width="0.3" stroke-miterlimit="10"/>
<path d="M26.1401 12.4041L25.3065 43.125" stroke="#641926" stroke-width="0.3" stroke-miterlimit="10"/>
</svg>
